<svg width="121" height="54" viewBox="0 0 121 54" fill="none" xmlns="http://www.w3.org/2000/svg">
<path d="M8.76562 26H5.13281V11.8906H0.480469V8.86719H13.418V11.8906H8.76562V26ZM16.0547 26V8.86719H19.6875V26H16.0547ZM30.6094 26H26.9766V11.8906H22.3242V8.86719H35.2617V11.8906H30.6094V26ZM48.3867 26L47.1445 21.9219H40.8984L39.6562 26H35.7422L41.7891 8.79688H46.2305L52.3008 26H48.3867ZM46.2773 18.875L45.0352 14.8906C44.957 14.625 44.8516 14.2852 44.7188 13.8711C44.5938 13.4492 44.4648 13.0234 44.332 12.5938C44.207 12.1562 44.1055 11.7773 44.0273 11.457C43.9492 11.7773 43.8398 12.1758 43.6992 12.6523C43.5664 13.1211 43.4375 13.5664 43.3125 13.9883C43.1875 14.4102 43.0977 14.7109 43.043 14.8906L41.8125 18.875H46.2773ZM69.668 26H65.0508L57.5977 13.0391H57.4922C57.5234 13.5781 57.5508 14.1211 57.5742 14.668C57.5977 15.2148 57.6211 15.7617 57.6445 16.3086C57.668 16.8477 57.6914 17.3906 57.7148 17.9375V26H54.4688V8.86719H59.0508L66.4922 21.6992H66.5742C66.5586 21.168 66.5391 20.6406 66.5156 20.1172C66.4922 19.5938 66.4688 19.0703 66.4453 18.5469C66.4297 18.0234 66.4141 17.5 66.3984 16.9766V8.86719H69.668V26ZM73.9922 26V8.86719H77.625V26H73.9922ZM95.8828 8.86719V19.9531C95.8828 21.1328 95.6211 22.1992 95.0977 23.1523C94.582 24.0977 93.7969 24.8477 92.7422 25.4023C91.6953 25.957 90.375 26.2344 88.7812 26.2344C86.5156 26.2344 84.7891 25.6562 83.6016 24.5C82.4141 23.3438 81.8203 21.8125 81.8203 19.9062V8.86719H85.4414V19.3555C85.4414 20.7695 85.7305 21.7617 86.3086 22.332C86.8867 22.9023 87.7422 23.1875 88.875 23.1875C89.6719 23.1875 90.3164 23.0508 90.8086 22.7773C91.3086 22.5039 91.6758 22.082 91.9102 21.5117C92.1445 20.9414 92.2617 20.2148 92.2617 19.332V8.86719H95.8828ZM107.332 26L103.207 12.5586H103.102C103.117 12.8789 103.141 13.3633 103.172 14.0117C103.211 14.6523 103.246 15.3359 103.277 16.0625C103.309 16.7891 103.324 17.4453 103.324 18.0312V26H100.078V8.86719H105.023L109.078 21.9688H109.148L113.449 8.86719H118.395V26H115.008V17.8906C115.008 17.3516 115.016 16.7305 115.031 16.0273C115.055 15.3242 115.082 14.6562 115.113 14.0234C115.145 13.3828 115.168 12.9023 115.184 12.582H115.078L110.66 26H107.332Z" fill="#00B5D0"/>
<path d="M9.44727 45H7.33496V40.6865H3.37695V45H1.25781V35.0059H3.37695V38.9229H7.33496V35.0059H9.44727V45ZM17.7324 45H11.9766V35.0059H17.7324V36.7422H14.0957V38.9365H17.4795V40.6729H14.0957V43.25H17.7324V45ZM25.9424 45L25.2178 42.6211H21.5742L20.8496 45H18.5664L22.0938 34.9648H24.6846L28.2256 45H25.9424ZM24.7119 40.8438C24.042 38.6882 23.6637 37.4691 23.5771 37.1865C23.4951 36.904 23.4359 36.6807 23.3994 36.5166C23.249 37.0999 22.8184 38.5423 22.1074 40.8438H24.7119ZM29.4902 45V35.0059H31.6094V43.25H35.6631V45H29.4902ZM41.2617 45H39.1426V36.7695H36.4287V35.0059H43.9756V36.7695H41.2617V45ZM53.7031 45H51.5908V40.6865H47.6328V45H45.5137V35.0059H47.6328V38.9229H51.5908V35.0059H53.7031V45ZM60.4775 36.626C59.68 36.626 59.0625 36.9268 58.625 37.5283C58.1875 38.1253 57.9688 38.9593 57.9688 40.0303C57.9688 42.2588 58.805 43.373 60.4775 43.373C61.1794 43.373 62.0293 43.1976 63.0273 42.8467V44.624C62.207 44.9658 61.291 45.1367 60.2793 45.1367C58.8255 45.1367 57.7135 44.6969 56.9434 43.8174C56.1732 42.9333 55.7881 41.6663 55.7881 40.0166C55.7881 38.9775 55.9772 38.0684 56.3555 37.2891C56.7337 36.5052 57.276 35.9059 57.9824 35.4912C58.6934 35.0719 59.5251 34.8623 60.4775 34.8623C61.4482 34.8623 62.4235 35.097 63.4033 35.5664L62.7197 37.2891C62.346 37.1113 61.9701 36.9564 61.5918 36.8242C61.2135 36.6921 60.8421 36.626 60.4775 36.626ZM71.2783 45L70.5537 42.6211H66.9102L66.1855 45H63.9023L67.4297 34.9648H70.0205L73.5615 45H71.2783ZM70.0479 40.8438C69.3779 38.6882 68.9997 37.4691 68.9131 37.1865C68.8311 36.904 68.7718 36.6807 68.7354 36.5166C68.585 37.0999 68.1543 38.5423 67.4434 40.8438H70.0479ZM76.9453 39.4424H77.6289C78.2988 39.4424 78.7933 39.3307 79.1123 39.1074C79.4313 38.8841 79.5908 38.5332 79.5908 38.0547C79.5908 37.5807 79.4268 37.2435 79.0986 37.043C78.7751 36.8424 78.2715 36.7422 77.5879 36.7422H76.9453V39.4424ZM76.9453 41.165V45H74.8262V35.0059H77.7383C79.0964 35.0059 80.1012 35.2542 80.7529 35.751C81.4046 36.2432 81.7305 36.9928 81.7305 38C81.7305 38.5879 81.5687 39.112 81.2451 39.5723C80.9215 40.028 80.4635 40.3857 79.8711 40.6455C81.375 42.8923 82.3548 44.3438 82.8105 45H80.459L78.0732 41.165H76.9453ZM89.8242 45H84.0684V35.0059H89.8242V36.7422H86.1875V38.9365H89.5713V40.6729H86.1875V43.25H89.8242V45Z" fill="#0A0A0A"/>
</svg>
